# xmcd
#
# Track frame offsets:
#	150
#	31710
#	63273
#	94148
#	132422
#	165786
#	202234
#	227391
#	307289
#	329921
#
# Disc length: 4684 seconds
#
# Revision: 1
# Processed by: cddbd v1.5.2PL0 Copyright (c) Steve Scherf et al.
# Submitted via: audiograbber 1.83.01
#
DISCID=88124a0a
DTITLE=Paul Deslauriers et black cat bone - Bone-ified
DYEAR=2011
DGENRE=Blues
TTITLE0=Cross road blues
TTITLE1=Mr. fiction
TTITLE2=Walking blues
TTITLE3=Rambling on my mind
TTITLE4=Misery
TTITLE5=Worried life blues
TTITLE6=Mad
TTITLE7=Hey Joe
TTITLE8=I do it very well
TTITLE9=No clue
EXTD=
EXTT0=
EXTT1=
EXTT2=
EXTT3=
EXTT4=
EXTT5=
EXTT6=
EXTT7=
EXTT8=
EXTT9=
PLAYORDER=
